<svg xmlns="http://www.w3.org/2000/svg" enable-background="new 0 0 2800 2000" viewBox="58.11 26.908 2683.78 1946.154"><path fill="#dfe6ff" fill-rule="evenodd" d="M1400,1884.6c671.9,0,1219.9-23.4,1219.9-52.9c0-29.1-548-52.5-1219.9-52.5s-1219.9,23.4-1219.9,52.5    C180.1,1861.2,728.1,1884.6,1400,1884.6L1400,1884.6z" clip-rule="evenodd"/><path fill="#38c551" fill-rule="evenodd" d="M545,708c97.7,30.9,188.4,114.4,237.6,231.5c49.2,117.2,45.1,240.4-1.2,331.8       c-97.7-30.9-188.4-114.4-237.6-231.5C494.6,922.6,498.6,799.3,545,708L545,708z" clip-rule="evenodd"/><path fill="#38c551" d="M782.3,1273.4l-1.4-0.5c-101.9-32.3-191.1-119.2-238.7-232.6c-47.6-113.4-47.1-238,1.3-333.3l0.7-1.3       l1.4,0.5c101.9,32.2,191.1,119.1,238.7,232.6c47.6,113.4,47.1,237.9-1.3,333.3L782.3,1273.4z M545.9,710.1       c-47.3,94.2-47.5,217-0.5,328.9c46.9,111.9,134.7,197.8,235.1,230.1c47.2-94.2,47.5-217.1,0.5-328.9       C734,828.3,646.2,742.4,545.9,710.1z"/><path fill="#fff" d="M782,1272.9c-0.9,0.4-1.9,0-2.3-0.9L543.4,708.7c-0.4-0.9,0-1.9,0.9-2.3c0.9-0.4,1.9,0,2.3,0.9        L783,1270.6C783.4,1271.5,782.9,1272.6,782,1272.9z"/><path fill="#fff" d="M586.8,807.6c-0.3,0.1-0.6,0.2-1,0.1c-1-0.2-1.6-1.1-1.5-2l12.1-75.6c0.2-1,1.1-1.6,2-1.5        c1,0.2,1.6,1.1,1.5,2l-12.1,75.6C587.8,806.9,587.4,807.4,586.8,807.6z"/><path fill="#fff" d="M616.8,879.1c-0.5,0.2-1,0.2-1.5,0l-105.2-52.1c-0.9-0.4-1.2-1.5-0.8-2.4c0.4-0.9,1.5-1.2,2.4-0.8        l105.2,52.1c0.9,0.4,1.2,1.5,0.8,2.4C617.5,878.6,617.2,878.9,616.8,879.1z"/><path fill="#fff" d="M648.5,954.6c-0.4,0.2-0.9,0.2-1.4,0c-0.9-0.4-1.3-1.4-1-2.3l56.4-138.6c0.4-0.9,1.4-1.3,2.3-1        c0.9,0.4,1.3,1.4,1,2.3l-56.4,138.6C649.2,954,648.9,954.4,648.5,954.6z"/><path fill="#fff" d="M697.7,1071.9c-0.5,0.2-1,0.2-1.5-0.1L522,979.6c-0.9-0.5-1.2-1.5-0.7-2.4c0.5-0.9,1.5-1.2,2.4-0.7        l174.2,92.2c0.9,0.5,1.2,1.5,0.7,2.4C698.4,1071.4,698,1071.7,697.7,1071.9z"/><path fill="#fff" d="M732.7,1155.4c-0.4,0.2-0.9,0.2-1.4,0c-0.9-0.4-1.3-1.4-1-2.3l67.8-165.9c0.4-0.9,1.4-1.3,2.3-1        c0.9,0.4,1.3,1.4,1,2.3l-67.8,165.9C733.5,1154.9,733.2,1155.2,732.7,1155.4z"/><path fill="#fff" d="M758.2,1216.1c-0.4,0.2-0.9,0.2-1.3,0L619.2,1164c-0.9-0.3-1.4-1.4-1-2.3c0.3-0.9,1.4-1.4,2.3-1        l137.6,52.1c0.9,0.3,1.4,1.4,1,2.3C759,1215.5,758.6,1215.9,758.2,1216.1z"/><path fill="#61ea75" fill-rule="evenodd" d="M231.9,1077.2c86.8-54.4,209.2-69.4,330.3-30.9c121.1,38.5,212.3,121.4,251.8,216       c-86.9,54.4-209.2,69.4-330.3,30.9S271.4,1171.7,231.9,1077.2L231.9,1077.2z" clip-rule="evenodd"/><path fill="#61ea75" d="M816.3,1263l-1.3,0.8c-90.6,56.7-214.7,68.3-331.8,31c-117.2-37.3-211.8-118.4-252.9-217l-0.6-1.4l1.3-0.8       c90.6-56.7,214.6-68.3,331.8-31c117.1,37.3,211.7,118.4,252.9,217L816.3,1263z M234.2,1077.9c41.1,97,134.5,176.8,250.2,213.6       c115.6,36.8,237.9,25.6,327.6-29.9c-41.1-97-134.5-176.8-250.1-213.6C446.1,1011.2,323.7,1022.4,234.2,1077.9z"/><path fill="#fff" d="M815.8,1262.9c-0.3,0.9-1.3,1.5-2.2,1.2l-582.2-185.1c-0.9-0.3-1.4-1.3-1.2-2.2c0.3-0.9,1.3-1.5,2.2-1.2        l582.2,185.1C815.6,1260.9,816.1,1261.9,815.8,1262.9z"/><path fill="#fff" d="M334.9,1109.9c-0.1,0.3-0.3,0.6-0.5,0.8c-0.7,0.6-1.9,0.5-2.5-0.2l-49.7-58.2c-0.6-0.7-0.5-1.9,0.2-2.5        c0.7-0.6,1.9-0.5,2.5,0.2l49.7,58.2C335,1108.7,335.1,1109.4,334.9,1109.9z"/><path fill="#fff" d="M408.7,1133.4c-0.2,0.5-0.5,0.9-1,1.1l-107.9,46.3c-0.9,0.4-1.9,0-2.3-0.9c-0.4-0.9,0-1.9,0.9-2.3        l107.9-46.3c0.9-0.4,1.9,0,2.3,0.9C408.8,1132.6,408.8,1133,408.7,1133.4z"/><path fill="#fff" d="M486.8,1158.2c-0.1,0.4-0.4,0.8-0.9,1c-0.9,0.5-1.9,0.1-2.4-0.8l-69-132.8c-0.5-0.9-0.1-1.9,0.8-2.4        c0.9-0.5,1.9-0.1,2.4,0.8l69,132.8C486.9,1157.3,486.9,1157.8,486.8,1158.2z"/><path fill="#fff" d="M608,1196.8c-0.2,0.5-0.5,0.9-1,1.1l-183.1,72.9c-0.9,0.4-1.9-0.1-2.3-1c-0.4-0.9,0.1-1.9,1-2.3        l183.1-72.9c0.9-0.4,1.9,0.1,2.3,1C608.1,1196,608.1,1196.4,608,1196.8z"/><path fill="#fff" d="M694.3,1224.2c-0.1,0.4-0.4,0.8-0.9,1c-0.9,0.5-1.9,0.1-2.4-0.8l-82.4-159.1c-0.5-0.9-0.1-1.9,0.8-2.4        c0.9-0.5,1.9-0.1,2.4,0.8l82.4,159.1C694.4,1223.3,694.5,1223.8,694.3,1224.2z"/><path fill="#fff" d="M757,1244.2c-0.1,0.4-0.4,0.8-0.8,1l-128.9,71c-0.9,0.5-1.9,0.2-2.4-0.7c-0.5-0.9-0.2-1.9,0.7-2.4        l128.9-71c0.9-0.5,1.9-0.2,2.4,0.7C757.1,1243.2,757.2,1243.7,757,1244.2z"/><g><path fill="#38c551" fill-rule="evenodd" d="M1395.5,534.1c28.4,139.6-11.9,306.2-121.2,445c-109.3,138.8-261.8,217-404.1,222.2       c-28.3-139.6,11.9-306.2,121.2-445C1100.7,617.6,1253.2,539.3,1395.5,534.1L1395.5,534.1z" clip-rule="evenodd"/><path fill="#38c551" d="M868.2,1203.9l-0.4-2.1c-29.5-145.6,16-312.8,121.7-447c105.8-134.3,257.5-217.8,406-223.2l2.1-0.1l0.4,2       c29.6,145.6-15.9,312.7-121.7,447c-105.7,134.3-257.5,217.7-406,223.2L868.2,1203.9z M1393.5,536.7       c-146.3,6.1-295.8,88.7-400.2,221.2C889,890.4,843.8,1055.1,872.2,1198.8c146.4-6.1,295.9-88.7,400.2-221.2       C1376.8,845,1422,680.4,1393.5,536.7z"/><path fill="#fff" d="M868.7,1203.3c-1.1-0.8-1.3-2.4-0.4-3.5l525.3-667.3c0.8-1.1,2.4-1.3,3.5-0.4c1.1,0.8,1.3,2.4,0.4,3.5        l-525.3,667.3C871.3,1204,869.7,1204.2,868.7,1203.3z"/><path fill="#fff" d="M1302.6,652.1c-0.3-0.3-0.6-0.6-0.8-1.1c-0.5-1.3,0.2-2.7,1.5-3.2l100.1-36.2c1.3-0.5,2.7,0.2,3.2,1.5        c0.5,1.3-0.2,2.7-1.5,3.2L1305,652.5C1304.2,652.8,1303.3,652.7,1302.6,652.1z"/><path fill="#fff" d="M1236,736.8c-0.5-0.4-0.9-1.1-0.9-1.8l-7.6-163.1c-0.1-1.4,1-2.5,2.3-2.6c1.4-0.1,2.5,1,2.6,2.3        l7.6,163.1c0.1,1.4-1,2.5-2.3,2.6C1237,737.3,1236.4,737.1,1236,736.8z"/><path fill="#fff" d="M1165.6,826.2c-0.5-0.4-0.8-1-0.9-1.6c-0.2-1.4,0.8-2.6,2.2-2.7l206.5-25c1.4-0.2,2.6,0.8,2.7,2.2        c0.2,1.4-0.8,2.6-2.2,2.7l-206.5,25C1166.7,826.8,1166.1,826.6,1165.6,826.2z"/><path fill="#fff" d="M1056.2,965.2c-0.6-0.4-0.9-1.1-0.9-1.9l-5.5-273.9c0-1.4,1.1-2.5,2.4-2.5c1.4,0,2.5,1.1,2.5,2.4        l5.5,273.9c0,1.4-1.1,2.5-2.4,2.5C1057.2,965.7,1056.6,965.5,1056.2,965.2z"/><path fill="#fff" d="M978.3,1064.1c-0.5-0.4-0.8-1-0.9-1.6c-0.2-1.4,0.8-2.6,2.2-2.7l247.3-29.5c1.4-0.2,2.6,0.8,2.7,2.2        c0.2,1.4-0.8,2.6-2.2,2.7l-247.3,29.5C979.4,1064.7,978.8,1064.5,978.3,1064.1z"/><path fill="#fff" d="M921.7,1136c-0.5-0.4-0.8-0.9-0.9-1.6l-29.5-202.5c-0.2-1.3,0.7-2.6,2.1-2.8c1.3-0.2,2.6,0.7,2.8,2.1        l29.5,202.5c0.2,1.3-0.7,2.6-2.1,2.8C922.9,1136.6,922.2,1136.4,921.7,1136z"/><g><path fill="#61ea75" fill-rule="evenodd" d="M735.6,402.6C860.2,471.5,961,610.1,995.9,783.3c34.9,173.2-4.4,340-92.7,451.8       c-124.7-69-225.4-207.5-260.3-380.7C608,681.2,647.3,514.3,735.6,402.6L735.6,402.6z" clip-rule="evenodd"/><path fill="#61ea75" d="M903.8,1238.3l-1.8-1c-130-71.9-227.8-214.9-261.5-382.4c-33.7-167.6,1.1-337.3,93.2-453.8l1.3-1.6l1.8,1       c130,71.8,227.8,214.8,261.5,382.4c33.7,167.5-1.1,337.2-93.2,453.8L903.8,1238.3z M736.2,405.8       C646,521.1,612,688.5,645.3,853.9c33.3,165.3,129.4,306.5,257.3,378c90.2-115.5,124.2-282.8,90.9-448.1       C960.2,618.4,864.1,477.2,736.2,405.8z"/><path fill="#fff" d="M903.7,1237.5c-1.3,0.3-2.6-0.6-2.9-1.9L733.2,403.1c-0.3-1.3,0.6-2.6,1.9-2.9c1.3-0.3,2.6,0.6,2.9,1.9        l167.6,832.5C905.9,1236,905,1237.3,903.7,1237.5z"/><path fill="#fff" d="M765.2,549.8c-0.4,0.1-0.9,0.1-1.3-0.1c-1.3-0.5-1.9-1.9-1.4-3.2l37.3-99.7c0.5-1.3,1.9-1.9,3.2-1.4        c1.3,0.5,1.9,1.9,1.4,3.2L767,548.3C766.7,549.1,766,549.7,765.2,549.8z"/><path fill="#fff" d="M786.5,655.4c-0.7,0.1-1.4,0-2-0.5L655.4,555c-1.1-0.8-1.3-2.4-0.4-3.5c0.8-1.1,2.4-1.3,3.5-0.4        L787.5,651c1.1,0.8,1.3,2.4,0.4,3.5C787.6,655,787,655.3,786.5,655.4z"/><path fill="#fff" d="M808.9,767c-0.6,0.1-1.3,0-1.8-0.4c-1.1-0.8-1.4-2.3-0.7-3.4l114.8-173.5c0.8-1.1,2.3-1.4,3.4-0.7        c1.1,0.8,1.4,2.3,0.7,3.4L810.5,765.9C810.1,766.5,809.6,766.9,808.9,767z"/><path fill="#fff" d="M843.8,940.4c-0.7,0.1-1.5,0-2-0.5L629.7,766.5c-1.1-0.9-1.2-2.4-0.3-3.5c0.9-1.1,2.4-1.2,3.5-0.3        L844.9,936c1.1,0.9,1.2,2.4,0.3,3.5C844.9,940,844.4,940.3,843.8,940.4z"/><path fill="#fff" d="M868.7,1063.8c-0.6,0.1-1.3,0-1.9-0.4c-1.1-0.8-1.4-2.3-0.7-3.4L1004,852.6c0.8-1.1,2.3-1.4,3.4-0.7        c1.1,0.8,1.4,2.3,0.7,3.4l-137.9,207.5C869.9,1063.4,869.3,1063.7,868.7,1063.8z"/><path fill="#fff" d="M886.8,1153.5c-0.6,0.1-1.2,0-1.8-0.3l-173.3-108.8c-1.2-0.7-1.5-2.2-0.8-3.4c0.7-1.2,2.2-1.5,3.4-0.8        L887.6,1149c1.2,0.7,1.5,2.2,0.8,3.4C888,1153,887.4,1153.4,886.8,1153.5z"/></g></g><g><path fill="#0643a3" d="M1083.1,1014.9v524h57v137h-57v141h-200v-141h-238v-137l173-524H1083.1z M883.1,1538.9v-341.5l-88.8,341.5      H883.1z"/><path fill="#0643a3" d="M1650.9,1285.8v267.6c0,60.8-3.3,105.1-9.9,132.8c-6.6,27.8-20.3,53.7-41.1,77.8      c-20.8,24.1-45.9,41.5-75.3,52c-29.4,10.6-62.3,15.9-98.6,15.9c-47.9,0-87.7-5.5-119.4-16.6c-31.7-11.1-57-28.3-75.8-51.8      c-18.8-23.5-32.2-48.1-40.1-74.1s-11.9-67.2-11.9-123.7v-280c0-73.7,6.3-128.8,19.1-165.5c12.7-36.7,38-66.1,75.8-88.2      c37.8-22.1,83.6-33.2,137.4-33.2c43.9,0,83.2,7.7,117.9,23c34.7,15.4,60.6,34.1,77.8,56.2c17.2,22.1,28.8,47.1,34.9,74.8      C1647.9,1180.7,1650.9,1225,1650.9,1285.8z M1450.9,1218.2c0-42.7-2.1-69.4-6.2-80.1c-4.1-10.8-13.8-16.1-29-16.1      c-14.9,0-24.8,5.7-29.5,17.1c-4.8,11.4-7.2,37.8-7.2,79.1v392c0,46.7,2.2,74.8,6.7,84.4c4.5,9.6,14.1,14.4,29,14.4      c14.9,0,24.7-5.6,29.3-16.9c4.6-11.3,7-36.5,7-75.9V1218.2z"/><path fill="#0643a3" d="M2133,1014.9v524h57v137h-57v141h-200v-141h-238v-137l173-524H2133z M1933,1538.9v-341.5l-88.8,341.5H1933z      "/><path fill="#2c7efe" d="M1048,1014.9v524h57v137h-57v141H848v-141H610v-137l173-524H1048z M848,1538.9v-341.5l-88.8,341.5H848z"/><path fill="#2c7efe" d="M1615.8,1285.8v267.6c0,60.8-3.3,105.1-9.9,132.8c-6.6,27.8-20.3,53.7-41.1,77.8      c-20.8,24.1-45.9,41.5-75.3,52c-29.4,10.6-62.3,15.9-98.6,15.9c-47.9,0-87.7-5.5-119.4-16.6c-31.7-11.1-57-28.3-75.8-51.8      c-18.8-23.5-32.2-48.1-40.1-74.1s-11.9-67.2-11.9-123.7v-280c0-73.7,6.3-128.8,19.1-165.5c12.7-36.7,38-66.1,75.8-88.2      c37.8-22.1,83.6-33.2,137.4-33.2c43.9,0,83.2,7.7,117.9,23s60.6,34.1,77.8,56.2c17.2,22.1,28.8,47.1,34.9,74.8      C1612.8,1180.7,1615.8,1225,1615.8,1285.8z M1415.8,1218.2c0-42.7-2.1-69.4-6.2-80.1c-4.1-10.8-13.8-16.1-29-16.1      c-14.9,0-24.8,5.7-29.5,17.1c-4.8,11.4-7.2,37.8-7.2,79.1v392c0,46.7,2.2,74.8,6.7,84.4c4.5,9.6,14.1,14.4,29,14.4      c14.9,0,24.7-5.6,29.3-16.9c4.6-11.3,7-36.5,7-75.9V1218.2z"/><path fill="#2c7efe" d="M2097.9,1014.9v524h57v137h-57v141h-200v-141h-238v-137l173-524H2097.9z M1897.9,1538.9v-341.5l-88.8,341.5      H1897.9z"/></g><g><path fill="#ffaa81" fill-rule="evenodd" d="M1966.5,1199.3l26.5,0.5l6.3,40.3l-6.8,1l4.3,12.8l-5.5,16l-80.5,36.8c26.3-21,58.5-43,62.8-66.5     L1966.5,1199.3z" clip-rule="evenodd"/><path fill="#be96f8" fill-rule="evenodd" d="M1999.3,1240c-2.8-5.8-3.8-5-10.5,1.8c-10,50.8-113,60-95.3,77.8l64.8-11.3c23-9.3,28-26,32.3-34.8l5.8,29     c2.5-0.5,5.3-1,7.8-1.3C2002.5,1280.8,2007,1260.8,1999.3,1240L1999.3,1240z" clip-rule="evenodd"/><path fill="#be96f8" fill-rule="evenodd" d="M1908,996.2l71.8,3.3l22.8,221.6c-16.3,9.8-37.5,11.5-54.8,3.3L1908,996.2z" clip-rule="evenodd"/><path fill="#ffaa81" fill-rule="evenodd" d="M1877.8,1214.3l26,4.8v40.8h-6.5l2,13l-8,15l-85,24c29.3-16.8,64.3-33.5,72.3-56L1877.8,1214.3z" clip-rule="evenodd"/><path fill="#dfcffd" fill-rule="evenodd" d="M1903.8,1259.8c-1.8-6.3-2.8-5.8-10.5,0c-17.8,48.8-120.8,41.8-106.3,62.3l65.8-1.3     c24.5-5.5,31.8-21.5,37.5-29.3l1,29.3c2.8,0,5.3,0,8,0C1900.8,1300.6,1908.3,1281.3,1903.8,1259.8L1903.8,1259.8z" clip-rule="evenodd"/><path fill="#dfcffd" fill-rule="evenodd" d="M2087.3,872.2l-72.5,42.5c-45.3,7.5-90.8,15-136,22.8c-27.8,6.5-37.5,32.5-36,51c6,81.8,12,163.8,18,245.8     c16.3,8,37.5,9.8,57,0l3.3-218.6c81.5-4.5,179.3,18,234.8-13c18-21.3,29.3-58.8,10-86.3L2087.3,872.2z" clip-rule="evenodd"/><path fill="#060352" fill-rule="evenodd" d="M2035.3,585.9c-17.8-24.8-38.8-55-7.5-63.8c13.3-3.8,12.3-31,42-35.8c6.3-1,20,2.3,29.3,11     c5.5,5,22.8-4.5,31.8,15c3.8,8.3,8.3,5.3,8,36.3c0,22.5,28.8,49.5,33.8,63.5c8.3,22.8,18,18.8,23.5,38.8     c-1,11.3-24.8,21.8-54,20.5c-10-0.5-22.5,1-30.8,7c-5,3.5-23.5,8.5-27.3-4.8c-3.3-11-22.8,21.8-30-24c-2-12.3,12.8,3.3,2.3-33.8     C2052.8,603.6,2051.8,611.6,2035.3,585.9L2035.3,585.9z" clip-rule="evenodd"/><path fill="#8183f1" fill-rule="evenodd" d="M2079.3,632.9l36-6.8c23.8,9.5,63.8,20.8,68.3,31l62,128.8c-29.5,58.5-40.8,70-60.5,92.8     c-13-6.5-17.8-11.3-21-21.3l42.3-71.5l-53.8-57.5l13.3,188c-49.3,24.3-111,11.3-151-1.8l23-193.5l-12.5,43.5     c-1.5,3.3,0,2.3-6.5,9.8l-78.3,94.5c-8,1.8-29.3-6.5-27.8-18l73.5-109c10.8-30.3,24.5-73.5,34.3-83.3     C2030.5,649.9,2059,639.2,2079.3,632.9L2079.3,632.9z" clip-rule="evenodd"/><path fill="#ff9866" fill-rule="evenodd" d="M2075.6,615.6l31.5-10.5l8.5,27.3c-10.3,16.8-22.8,21-32.8,16.5L2075.6,615.6z" clip-rule="evenodd"/><path fill="#ffaa81" fill-rule="evenodd" d="M2107.6,543.9c-23,2-46,4.3-68.8,6.3c-4.8,14.8,6.8,70.8,21.3,82.3c18,14.5,43.5-2.3,48-20     C2112.8,595.9,2114.6,556.6,2107.6,543.9L2107.6,543.9z" clip-rule="evenodd"/><path fill="#060352" fill-rule="evenodd" d="M2036,541.6c3,4.8-5.5,21,15.3,15.3c12.5-3.5,1-6.8,19.3,0c11.5,4.3,20.5-14.5,30.5,4.8     c3.5,6.8,5.3,15,10.5,20.5c2.8,3,15,20,15.8,3.3c0.8-18,6-16.3-3.8-38.3c-2-4.5-14.5-16.3-20.5-18.3c-12-3.8-20.5-2.5-32.8,0.5     c-5,1-34.8,6.3-34.8,10.8C2035.5,540.4,2036,541.4,2036,541.6L2036,541.6z" clip-rule="evenodd"/><path fill="#ffaa81" fill-rule="evenodd" d="M2110.6,589.1c-14.8-2.8-14.8-9-7-19c2.3-4.8,7.8-9.3,12-4C2118.6,571.1,2113.6,583.6,2110.6,589.1     L2110.6,589.1z" clip-rule="evenodd"/><path fill="#ff9866" fill-rule="evenodd" d="M2160.1,868c-6.3,6.3-27.8,0.8-26.8,7.5c1.5,6.5,17,3.3,17.5,5.8c4,9.3-20.5,24-16.3,31.3     c10.5,18.3,40.5-0.3,45.8-36.3l-11.3-11.5C2167.3,863.7,2167.6,861,2160.1,868L2160.1,868z" clip-rule="evenodd"/><path fill="#ea718b" d="M2102,546c-0.6,0-1.3-0.2-1.8-0.7c-1-1-1.1-2.7-0.1-3.7c7.9-8.3,20-26.8,15.6-43.7       c-8.2-13.8-23.8-22.2-41.8-22.6c-1.4,0-2.6-1.2-2.6-2.7c0-1.4,1.2-2.6,2.7-2.6c19.9,0.5,37.3,10,46.4,25.5l0.2,0.3l0.1,0.3       c5.2,19.3-8.1,39.9-16.8,49C2103.4,545.7,2102.7,546,2102,546z"/><path fill="#ea718b" d="M2202.7,523.7c-0.2,0-0.4,0-0.7-0.1c-12.1-3.1-34-13.6-39.8-33.1l-0.1-0.4v-0.4       c0-18.6,10.2-35.7,27.4-45.9c1.2-0.7,2.8-0.3,3.6,0.9c0.7,1.2,0.3,2.8-0.9,3.6c-15.4,9.2-24.7,24.5-24.8,41       c4.6,14.8,21.9,25.5,36,29.2c1.4,0.4,2.2,1.8,1.9,3.2C2204.9,522.9,2203.8,523.7,2202.7,523.7z"/><path fill="#ea718b" d="M2117.2,556c-0.2,0-0.3,0-0.5,0c-1.4-0.3-2.4-1.6-2.1-3.1c2.9-15.5,12.1-36.2,28.6-43.2l0.3-0.1l0.4,0       c18.5-2.2,36.4,5.6,48.9,21.4c0.9,1.1,0.7,2.8-0.4,3.7c-1.1,0.9-2.8,0.7-3.7-0.4c-11.3-14.2-27.2-21.3-43.8-19.5       c-14.4,6.4-22.6,25.1-25.2,39.2C2119.6,555.1,2118.5,556,2117.2,556z"/><path fill="#ea718b" d="M2128.2,483.1c-21.1,0-38.5-19-42-23c-0.9-1.1-0.8-2.8,0.3-3.7s2.8-0.8,3.7,0.3       c9.3,10.9,25.7,22.8,41.4,21c15-6.9,25.1-21.2,27.6-39.1c0.2-1.4,1.5-2.4,3-2.2c1.4,0.2,2.4,1.5,2.2,3       c-2.8,19.9-14.1,35.7-31,43.3l-0.4,0.2l-0.4,0.1C2131.2,483,2129.7,483.1,2128.2,483.1z"/><path fill="#2c7efe" fill-rule="evenodd" d="M1923.5,921.7h194c2.5,0,4.5,2,4.5,4.5v6.8c0,2.5-2,4.5-4.5,4.5h-194c-2.5,0-4.5-2-4.5-4.5v-6.8      C1919,923.7,1921,921.7,1923.5,921.7L1923.5,921.7z" clip-rule="evenodd"/><path fill="#84b2fe" fill-rule="evenodd" d="M1810.7,793.2c30,0,59.8,0,89.5,0s59.5,0,89.5,0c5,0,10,4,11.3,9c5.5,21.3,11,42.3,16.5,63.3      c5.5,21,11,42,16.5,63c1.3,5-1.8,9-6.8,9c-29.8,0-59.5,0-89,0c-29.8,0-59.5,0-89,0c-5,0-10.3-4-11.5-9c-5.5-21-11.3-42-16.8-63      c-5.5-21-11.3-42-16.8-63.3C1803,797.2,1805.7,793.2,1810.7,793.2L1810.7,793.2z" clip-rule="evenodd"/><path fill="#fff" fill-rule="evenodd" d="M1919,847.5c6.8,0,6.8,0.8,9.8,2.5c-4.5,3-6.8,8.8-5,15.5c1.8,6.8,7,12.5,13.3,15.8      c-2.3,1.5-1.8,2.3-8.5,2.3c-6.8,0-20.3-8-22.8-18C1903,855.5,1912.5,847.5,1919,847.5L1919,847.5z" clip-rule="evenodd"/></g><g><path fill="#fff" fill-rule="evenodd" d="M2114,1797.3l126-323.7c4-10.1,10.4-10.1,14.4,0l126,323.7h32.7c3.7,0,6.7,3.2,6.7,7.2v27.8     c0,3.9-3,7.2-6.7,7.2h-331.9c-3.7,0-6.7-3.3-6.7-7.2v-27.8c0-4,3-7.2,6.7-7.2H2114z" clip-rule="evenodd"/><polygon fill="#feb542" fill-rule="evenodd" points="2169.8 1653.9 2324.6 1653.9 2348.6 1715.7 2145.7 1715.7" clip-rule="evenodd"/><path fill="#feb542" fill-rule="evenodd" d="M2125,1768.9h244.3l11,28.3h32.7c3.7,0,6.7,3.2,6.7,7.2v27.8c0,3.9-3,7.2-6.7,7.2h-331.9     c-3.7,0-6.7-3.3-6.7-7.2v-27.8c0-4,3-7.2,6.7-7.2h32.8L2125,1768.9z" clip-rule="evenodd"/><polygon fill="#feb542" fill-rule="evenodd" points="2213.8 1540.8 2280.5 1540.8 2304.6 1602.6 2189.7 1602.6" clip-rule="evenodd"/></g><g><path fill="#fff" fill-rule="evenodd" d="M419.6,1797.3l126-323.7c4-10.1,10.4-10.1,14.4,0l126,323.7h32.7c3.7,0,6.7,3.2,6.7,7.2v27.8     c0,3.9-3,7.2-6.7,7.2H386.9c-3.7,0-6.7-3.3-6.7-7.2v-27.8c0-4,3-7.2,6.7-7.2H419.6z" clip-rule="evenodd"/><polygon fill="#feb542" fill-rule="evenodd" points="475.4 1653.9 630.2 1653.9 654.3 1715.7 451.4 1715.7" clip-rule="evenodd"/><path fill="#feb542" fill-rule="evenodd" d="M430.7,1768.9H675l11,28.3h32.7c3.7,0,6.7,3.2,6.7,7.2v27.8c0,3.9-3,7.2-6.7,7.2H386.9     c-3.7,0-6.7-3.3-6.7-7.2v-27.8c0-4,3-7.2,6.7-7.2h32.8L430.7,1768.9z" clip-rule="evenodd"/><polygon fill="#feb542" fill-rule="evenodd" points="519.5 1540.8 586.2 1540.8 610.2 1602.6 495.4 1602.6" clip-rule="evenodd"/></g><g><path fill="#ea718b" fill-rule="evenodd" d="M1479.4,225.5c19.3-21.1,54.3-13.4,63,13.9l71.8,227.4l71.9,227.5c8.6,27.3-15.5,53.8-43.5,47.6     l-232.9-51.4L1176.9,639c-28-6.2-38.8-40.3-19.4-61.5l161-176.1L1479.4,225.5z" clip-rule="evenodd"/><path fill="#ea718b" fill-rule="evenodd" d="M1469.3,271.8c19.3-20.8,53.9-13.2,62.7,13.8l61.3,189l60.8,187.4c8.9,27.4-15.3,54-43.4,47.8L1415,666.7      l-195.7-43.2c-28.1-6.2-38.8-40.6-19.3-61.7l134.1-144.4L1469.3,271.8z" clip-rule="evenodd"/><path fill="#ef9cb1" d="M1614.4,715.9c-1.6-0.2-3.3-0.4-4.9-0.8l-195.6-43.2l-195.7-43.2c-15.1-3.3-26.8-14.1-31.4-28.8      c-4.6-14.7-1.1-30.3,9.4-41.6l269.2-290.1l3.9,3.6l-3.9-3.6c10.4-11.2,25.4-15.9,40.3-12.6c14.9,3.3,26.6,13.9,31.3,28.4      l61.3,189l60.8,187.4c4.8,14.7,1.4,30.3-9,41.7C1640.9,712.3,1627.8,717.3,1614.4,715.9z M1499.8,265.3      c-10-1-19.7,2.6-26.6,10.1l-269.2,290.1c-7.9,8.5-10.5,20.2-7.1,31.3c3.5,11.1,12.3,19.2,23.6,21.7l195.7,43.2l195.6,43.2      c11.3,2.5,22.8-1.1,30.6-9.7c7.8-8.6,10.3-20.3,6.7-31.3l-60.8-187.4l-61.3-189c-3.5-10.9-12.3-18.9-23.5-21.3      C1502.2,265.6,1501,265.4,1499.8,265.3z"/><path fill="#fff" fill-rule="evenodd" d="M1431,601.2l-0.5,0c-8.2-1.8-16.5,3.5-18.2,11.7l0,0c-1.8,8.1,3.5,16.4,11.7,18.1l0.6,0.2     c8.2,1.8,16.4-3.5,18.2-11.7l0,0C1444.5,611.3,1439.2,603,1431,601.2L1431,601.2z" clip-rule="evenodd"/><path fill="#fff" fill-rule="evenodd" d="M1511.5,357.3L1451,564.4l-2.4,11.1c-1.4,6.5-7.8,10.6-14.3,9.3l0,0c-6.5-1.4-10.6-7.8-9.3-14.3l2.4-11.2     l30.3-213.5l0.1,0c0.1-0.7,0.2-1.5,0.3-2.2l0,0c2.7-12.6,15.2-20.6,27.7-17.9l8.3,1.8c12.5,2.7,20.6,15.2,17.9,27.7l0,0     C1511.8,355.8,1511.7,356.6,1511.5,357.3L1511.5,357.3z" clip-rule="evenodd"/><path fill="#dfcffd" d="M1132,694.4c-6.2-0.6-12.2-1.9-18.1-3.7c-23.7-7.3-43.5-23.3-55.6-45c-12.1-21.7-15.4-46.9-9.2-70.9         c0.4-1.7,2.2-2.7,3.9-2.3c1.7,0.4,2.7,2.2,2.3,3.9c-12,46.6,14.6,94.1,60.5,108.3c8.4,2.6,17.2,3.9,26.3,3.9         c1.7,0,3.2,1.4,3.2,3.2c0,1.7-1.4,3.2-3.2,3.2C1138.7,694.9,1135.3,694.7,1132,694.4z"/><path fill="#dfcffd" d="M1138.7,662.8c-4-0.4-7.7-1.2-11.2-2.3c-29.7-9.1-46.9-39.8-39.2-69.9c0.4-1.7,2.2-2.7,3.9-2.3         c1.7,0.4,2.7,2.2,2.3,3.9c-6.9,26.8,8.4,54.2,34.9,62.3l0.1,0c4.5,1.5,9.6,2.3,15.1,2.4c1.7,0,3.1,1.5,3.1,3.2         c0,1.7-1.5,3.1-3.2,3.1C1142.5,663.1,1140.6,663,1138.7,662.8z"/><path fill="#dfcffd" d="M1681.1,815.5c-1-0.1-2.1-0.2-3.1-0.4c-9.7-1.3-18.8-4-27.3-8c-1.6-0.7-2.3-2.6-1.5-4.2         c0.7-1.6,2.6-2.3,4.2-1.5c7.9,3.7,16.4,6.2,25.5,7.4c47.6,6.5,91.8-25.4,100.5-72.7c0.3-1.7,2-2.9,3.7-2.5         c1.7,0.3,2.9,2,2.5,3.7C1776.4,786.9,1730.9,820.7,1681.1,815.5z"/><path fill="#dfcffd" d="M1680.3,782.4c-0.6-0.1-1.3-0.1-1.9-0.2c-5.8-0.8-11.4-2.4-16.5-4.8c-1.6-0.7-2.3-2.6-1.5-4.2         c0.7-1.6,2.6-2.3,4.2-1.5c4.6,2.1,9.5,3.6,14.7,4.3c27.4,3.8,52.9-14.6,57.9-41.9c0.3-1.7,2-2.9,3.7-2.5         c1.7,0.3,2.9,2,2.5,3.7C1737.8,765.1,1710.4,785.5,1680.3,782.4z"/><path fill="#dfcffd" d="M1594.2,179.4c-1.1-0.1-2.1-0.8-2.6-1.9c-3.4-8.1-8.1-15.7-13.8-22.6c-31-36.8-85.2-42.7-123.3-13.5         c-1.4,1.1-3.4,0.8-4.4-0.6c-1.1-1.4-0.8-3.4,0.6-4.4c40.9-31.3,98.8-24.9,132,14.5c6.2,7.4,11.1,15.5,14.8,24.2         c0.7,1.6-0.1,3.5-1.7,4.1C1595.3,179.4,1594.8,179.4,1594.2,179.4z"/><path fill="#dfcffd" d="M1565.9,194c-1.1-0.1-2.1-0.8-2.6-1.9c-2.1-4.8-4.8-9.2-8-13c-17.8-21.2-49-24.6-71.1-7.8         c-1.4,1.1-3.4,0.8-4.4-0.6c-1.1-1.4-0.8-3.4,0.6-4.4c24.7-18.9,59.8-15,79.7,8.7c3.7,4.3,6.7,9.2,9,14.6         c0.7,1.6-0.1,3.5-1.7,4.2C1567,194,1566.4,194.1,1565.9,194z"/></g></svg>